<svg xmlns="http://www.w3.org/2000/svg" width="50" height="24" viewBox="0 0 50 24">
  <g fill="none">
    <path fill="#E2574C" d="M23.7237123,11.9863043 C23.7237123,18.5557826 18.4139932,23.8788261 11.8618562,23.8788261 C5.30971918,23.8788261 0,18.5546087 0,11.9863043 C0,5.418 5.31102055,0.0937826087 11.8618562,0.0937826087 C18.4126918,0.0937826087 23.7237123,5.418 23.7237123,11.9863043 Z"/>
    <path fill="#F4B459" d="M26.1075616,0.0937826087 C23.4473014,0.0937826087 20.9982534,0.982173913 19.0191301,2.46521739 L19.0286301,2.4663913 C19.4178699,2.84334783 19.8473219,3.10865217 20.1783904,3.5426087 L17.7103425,3.58186957 C17.3235753,3.97317391 16.9711644,4.39891304 16.6389247,4.84134783 L20.9910959,4.84134783 C21.3221644,5.23969565 21.6282466,5.58586957 21.9059589,6.02582609 L15.8499041,6.02582609 C15.6280205,6.40878261 15.4227945,6.80243478 15.2435959,7.21147826 L22.5954247,7.21147826 C22.787637,7.61934783 22.9596781,7.92743478 23.1056918,8.35917391 L14.8081575,8.35917391 C14.6764589,8.76952174 14.5637603,9.18926087 14.4782603,9.61734783 L23.4532877,9.61734783 C23.5411301,10.0288696 23.6086712,10.4093478 23.655,10.7971304 L14.3002329,10.7971304 C14.2610616,11.1884348 14.2408904,11.5856087 14.2408904,11.9864348 L23.7225411,11.9864348 C23.7225411,12.4074783 23.6928699,12.7974783 23.6501849,13.1757391 L14.3002329,13.1757391 C14.3405753,13.578913 14.3999178,13.974913 14.4782603,14.3650435 L23.4389726,14.3650435 C23.3464452,14.7503478 23.2396027,15.138 23.1055616,15.54 L14.7808288,15.54 C14.9065411,15.9466957 15.0597123,16.3415217 15.2269384,16.7268261 L22.5954247,16.7268261 C22.3913699,17.1597391 22.1599863,17.5057826 21.9049178,17.9113043 L15.8286918,17.9113043 C16.0684041,18.3275217 16.3329726,18.7246957 16.6200548,19.1053043 L20.991226,19.1706522 C20.6186438,19.6189565 20.1405205,19.8889565 19.7049521,20.2814348 C19.728637,20.3004783 19.0084589,20.279087 17.5904863,20.2565217 C19.747637,22.4876087 22.7626507,23.8789565 26.1074315,23.8789565 C32.6607397,23.8789565 37.9728014,18.5546087 37.9728014,11.9864348 C37.9728014,5.41826087 32.661911,0.0937826087 26.1075616,0.0937826087 Z"/>
  </g>
</svg>
