<svg xmlns="http://www.w3.org/2000/svg" width="50" height="24" viewBox="0 0 50 24">
  <g fill="none" transform="translate(0 5)">
    <path fill="#32A6CE" d="M38.736933,2.49343066 C37.5187905,2.49343066 36.5442765,2.82043796 35.7321814,2.98394161 L35.4885529,4.86423358 C35.8946004,4.70072993 37.0315335,4.37372263 38.0060475,4.2919708 C38.9805616,4.2919708 39.5490281,4.45547445 39.3866091,5.35474453 C36.463067,5.35474453 34.5140389,5.9270073 34.1079914,7.88905109 C33.5395248,11.1591241 37.112743,11.2408759 38.4933045,9.76934307 L38.3308855,10.6686131 L40.9295896,10.6686131 L42.0665227,5.35474453 C42.4725702,3.14744526 40.5235421,2.41167883 38.736933,2.49343066 Z M38.8993521,7.97080292 C38.736933,8.62481752 38.1684665,8.87007299 37.5187905,8.95182482 C36.950324,8.95182482 36.463067,8.62481752 36.787905,7.97080292 C37.112743,7.48029197 37.8436285,7.48029197 38.412095,7.48029197 C38.574514,7.48029197 38.8181425,7.48029197 39.0617711,7.48029197 C38.9805616,7.39854015 38.8993521,7.72554745 38.8993521,7.97080292 Z"/>
    <path fill="#1A80AD" d="M35.4885529,4.86423358 C35.8946004,4.70072993 37.0315335,4.37372263 38.0060475,4.2919708 C38.9805616,4.2919708 39.5490281,4.45547445 39.3866091,5.35474453 C36.463067,5.35474453 34.5140389,5.9270073 34.1079914,7.88905109 C33.5395248,11.1591241 37.112743,11.2408759 38.4933045,9.76934307 L38.3308855,10.6686131 L40.9295896,10.6686131 L42.0665227,5.35474453 C42.5537797,3.14744526 40.5235421,2.57518248 38.736933,2.57518248 L35.4885529,4.86423358 Z M38.8993521,7.97080292 C38.736933,8.62481752 38.1684665,8.87007299 37.5187905,8.95182482 C36.950324,8.95182482 36.463067,8.62481752 36.787905,7.97080292 C37.112743,7.48029197 37.8436285,7.48029197 38.412095,7.48029197 C38.574514,7.48029197 38.8181425,7.48029197 39.0617711,7.48029197 C38.9805616,7.39854015 38.8993521,7.72554745 38.8993521,7.97080292 Z"/>
    <polygon fill="#32A6CE" points="44.259 .041 42.148 10.669 44.746 10.669 46.939 .041"/>
    <polygon fill="#1A80AD" points="46.127 .041 42.148 10.669 44.746 10.669 46.939 .041 44.259 .041 44.259 .041"/>
    <path fill="#32A6CE" d="M32.1589633,0.0408759124 L27.3676026,0.0408759124 L25.2561555,10.6686131 L28.0984881,10.6686131 L28.8293737,7.39854015 L30.8596112,7.39854015 C32.8086393,7.39854015 34.4328294,6.2540146 34.8388769,4.21021898 C35.2449244,1.83941606 33.5395248,0.0408759124 32.1589633,0.0408759124 Z M32.0777538,3.71970803 C31.9153348,4.45547445 31.1844492,4.9459854 30.4535637,4.9459854 L29.1542117,4.9459854 L29.7226782,2.49343066 L31.1032397,2.49343066 C31.8341253,2.49343066 32.2401728,2.98394161 32.0777538,3.71970803 Z"/>
    <path fill="#1A80AD" d="M32.1589633,0.0408759124 L28.9105832,0.0408759124 L25.174946,10.6686131 L28.0172786,10.6686131 L28.7481641,7.39854015 L30.7784017,7.39854015 C32.7274298,7.39854015 34.3516199,6.2540146 34.7576674,4.21021898 C35.2449244,1.83941606 33.5395248,0.0408759124 32.1589633,0.0408759124 Z M32.0777538,3.71970803 C31.9153348,4.45547445 31.1844492,4.9459854 30.4535637,4.9459854 L29.1542117,4.9459854 L29.7226782,2.49343066 L31.1032397,2.49343066 C31.8341253,2.49343066 32.2401728,2.98394161 32.0777538,3.71970803 Z"/>
    <path fill="#21789E" d="M13.399568,2.49343066 C12.1814255,2.49343066 11.2069114,2.82043796 10.4760259,2.98394161 L10.2323974,4.86423358 C10.5572354,4.70072993 11.775378,4.37372263 12.749892,4.2919708 C13.724406,4.2919708 14.2928726,4.45547445 14.1304536,5.35474453 C11.288121,5.35474453 9.33909287,5.9270073 8.93304536,7.88905109 C8.36457883,11.1591241 11.8565875,11.2408759 13.237149,9.76934307 L13.07473,10.6686131 L15.6734341,10.6686131 L16.8103672,5.35474453 C17.2164147,3.14744526 15.1861771,2.41167883 13.399568,2.49343066 Z M13.6431965,7.97080292 C13.4807775,8.62481752 12.912311,8.87007299 12.262635,8.95182482 C11.6941685,8.95182482 11.2069114,8.62481752 11.612959,7.97080292 C11.937797,7.48029197 12.6686825,7.48029197 13.1559395,7.48029197 C13.399568,7.48029197 13.561987,7.48029197 13.8056156,7.48029197 C13.724406,7.39854015 13.6431965,7.72554745 13.6431965,7.97080292 Z"/>
    <path fill="#1A5B80" d="M10.3136069,4.86423358 C10.6384449,4.70072993 11.8565875,4.37372263 12.8311015,4.2919708 C13.8056156,4.2919708 14.3740821,4.45547445 14.2116631,5.35474453 C11.3693305,5.35474453 9.42030238,5.9270073 9.01425486,7.88905109 C8.44578834,11.1591241 11.937797,11.2408759 13.3183585,9.76934307 L13.07473,10.6686131 L15.6734341,10.6686131 L16.8103672,5.35474453 C17.2976242,3.14744526 15.2673866,2.57518248 13.4807775,2.57518248 L10.3136069,4.86423358 Z M13.6431965,7.97080292 C13.4807775,8.62481752 12.912311,8.87007299 12.262635,8.95182482 C11.6941685,8.95182482 11.2069114,8.62481752 11.612959,7.97080292 C11.937797,7.48029197 12.6686825,7.48029197 13.1559395,7.48029197 C13.399568,7.48029197 13.561987,7.48029197 13.8056156,7.48029197 C13.724406,7.39854015 13.6431965,7.72554745 13.6431965,7.97080292 Z"/>
    <polygon fill="#21789E" points="17.866 2.493 20.465 2.493 20.871 7.072 23.47 2.493 26.149 2.493 19.978 13.939 17.054 13.939 18.922 10.505"/>
    <polyline fill="#1A5B80" points="20.465 2.657 20.871 7.153 23.47 2.493 26.149 2.493 19.978 13.939 17.054 13.939 18.922 10.587"/>
    <path fill="#21789E" d="M6.98401728,0.0408759124 L2.11144708,0.0408759124 L0,10.6686131 L2.84233261,10.6686131 L3.57321814,7.39854015 L5.60345572,7.39854015 C7.5524838,7.39854015 9.17667387,6.2540146 9.58272138,4.21021898 C10.0699784,1.83941606 8.36457883,0.0408759124 6.98401728,0.0408759124 Z M6.90280778,3.71970803 C6.74038877,4.45547445 6.00950324,4.9459854 5.27861771,4.9459854 L3.97926566,4.9459854 L4.54773218,2.49343066 L5.92829374,2.49343066 C6.65917927,2.49343066 7.06522678,2.98394161 6.90280778,3.71970803 Z"/>
    <path fill="#1A5B80" d="M6.98401728,0.0408759124 L4.79136069,0.0408759124 L0,10.6686131 L2.84233261,10.6686131 L3.57321814,7.39854015 L5.60345572,7.39854015 C7.5524838,7.39854015 9.17667387,6.2540146 9.58272138,4.21021898 C10.0699784,1.83941606 8.36457883,0.0408759124 6.98401728,0.0408759124 Z M6.90280778,3.71970803 C6.74038877,4.45547445 6.00950324,4.9459854 5.27861771,4.9459854 L3.97926566,4.9459854 L4.54773218,2.49343066 L5.92829374,2.49343066 C6.65917927,2.49343066 7.06522678,2.98394161 6.90280778,3.71970803 Z"/>
    <g fill="#06435E" transform="translate(.203 2.453)">
      <path d="M12.7092873,2.90218978 C10.5166307,3.06569343 9.05485961,3.71970803 8.7300216,5.35474453 C8.16155508,8.62481752 11.6535637,8.70656934 13.0341253,7.2350365 L12.8717063,8.21605839 L15.4704104,8.21605839 L15.8764579,6.2540146 L12.7092873,2.90218978 Z M13.4401728,5.51824818 C13.2777538,6.17226277 12.7092873,6.41751825 12.0596112,6.49927007 C11.4911447,6.49927007 11.0038877,6.17226277 11.4099352,5.51824818 C11.7347732,5.02773723 12.4656587,5.02773723 12.9529158,5.02773723 C13.1965443,5.02773723 13.3589633,5.02773723 13.6025918,5.02773723 C13.5213823,4.9459854 13.4401728,5.2729927 13.4401728,5.51824818 Z"/>
      <polygon points="20.83 4.537 20.668 4.782 22.373 6.418 25.946 .041 23.267 .041"/>
      <polygon points="2.639 8.216 3.37 4.946 .041 8.216"/>
    </g>
    <g fill="#2273AA" transform="translate(25.378 5.314)">
      <polygon points="2.639 5.355 3.37 1.921 3.37 2.003 .041 5.355"/>
      <path d="M12.7904968,0.0408759124 C10.5978402,0.204379562 9.13606911,0.858394161 8.8112311,2.49343066 C8.24276458,5.76350365 11.8159827,5.84525547 13.1965443,4.37372263 L12.9529158,5.35474453 L15.5516199,5.35474453 L15.9576674,3.39270073 L12.7904968,0.0408759124 Z M13.5213823,2.65693431 C13.3589633,3.31094891 12.7904968,3.55620438 12.1408207,3.6379562 C11.5723542,3.6379562 11.0850972,3.31094891 11.4099352,2.65693431 C11.7347732,2.16642336 12.4656587,2.16642336 13.0341253,2.16642336 C13.1965443,2.16642336 13.4401728,2.16642336 13.6838013,2.16642336 C13.6025918,2.08467153 13.5213823,2.41167883 13.5213823,2.65693431 Z"/>
      <polygon points="18.638 .531 16.77 5.355 19.368 5.355 20.099 2.085"/>
    </g>
    <g fill="#32A6CE" transform="translate(47)">
      <polygon points=".48 1.893 .48 .4 0 .4 0 .187 1.248 .187 1.248 .4 .768 .4 .768 1.893"/>
      <path d="M1.44,1.89333333 L1.44,0.186666667 L1.728,0.186666667 L2.112,1.36 C2.112,1.46666667 2.208,1.57333333 2.208,1.57333333 C2.208,1.46666667 2.208,1.46666667 2.304,1.25333333 L2.688,0.08 L2.976,0.08 L2.976,1.78666667 L2.784,1.78666667 L2.784,0.293333333 L2.304,1.78666667 L2.016,1.78666667 L1.536,0.293333333 L1.536,1.78666667 L1.44,1.78666667 L1.44,1.89333333 Z"/>
    </g>
  </g>
</svg>
