<svg xmlns="http://www.w3.org/2000/svg" width="50" height="24" viewBox="0 0 50 24">
  <g fill="none" transform="translate(0 5)">
    <path fill="#2394BC" d="M17.9705342,0.035 L15.7640548,13.9013913 L19.2908356,13.9013913 L21.4959589,0.035 C21.4959589,0.035 17.9705342,0.035 17.9705342,0.035 Z M28.608589,5.6833913 C27.376137,5.06876087 26.6206027,4.65393478 26.6206027,4.02530435 C26.6356712,3.45373913 27.2595068,2.86817391 28.652589,2.86817391 C29.7983973,2.8391087 30.6405753,3.11104348 31.2794795,3.3816087 L31.5995342,3.52586957 L32.0790137,0.624673913 C31.3823973,0.35273913 30.2778767,0.0531086957 28.9135753,0.0531086957 C25.4307945,0.0531086957 22.9783973,1.88178261 22.9631781,4.49719565 C22.9343973,6.42721739 24.7189589,7.49821739 26.0544795,8.14069565 C27.4187808,8.79976087 27.8831918,9.22706522 27.8831918,9.81263043 C27.8681233,10.7116739 26.7800274,11.1265 25.7647123,11.1265 C24.3579178,11.1265 23.6022329,10.9128478 22.4550685,10.4118913 L21.9906575,10.1982391 L21.4974658,13.2132609 C22.3259315,13.5851739 23.8495068,13.9125 25.4309452,13.9292391 C29.1322192,13.9292391 31.5406164,12.1282609 31.5709041,9.3408913 C31.5829589,7.81184783 30.6419315,6.64071739 28.608589,5.6833913 Z M41.1205616,0.0779130435 L38.3919589,0.0779130435 C37.551137,0.0779130435 36.9122329,0.322152174 36.5481781,1.1935 L31.3094658,13.9013913 L35.0107397,13.9013913 L36.0301233,11.150087 L40.1710959,11.150087 L40.7,13.9125 L43.9644384,13.9125 L41.1205616,0.0779130435 Z M37.056589,8.3735299 C37.1280137,8.38052174 38.4772466,3.88226087 38.4772466,3.88226087 L39.5516301,8.3735299 C39.5516301,8.3735299 37.7532055,8.37352174 37.056589,8.3735299 Z M12.8171096,0.035 L9.36175342,9.45593478 L8.98534247,7.59804348 C8.34643836,5.45436957 6.34338356,3.1248913 4.1079726,1.96776087 L7.27205479,13.8875435 L11.0036164,13.8875435 L16.5486712,0.0365217391 L12.8171096,0.0365217391 L12.8171096,0.035 Z"/>
    <path fill="#EFC75E" d="M7.8229589,1.82334783 C7.55368493,0.766043478 6.69493151,0.0529565217 5.52863014,0.0377391304 L0.0563561644,0.0377391304 L0,0.294304348 C4.26875342,1.35708696 7.85173973,4.62730435 9.01412329,7.70334783 L7.8229589,1.82334783 Z"/>
  </g>
</svg>
