<?xml version="1.0" encoding="utf-8"?>
<!-- Generator: Adobe Illustrator 17.0.0, SVG Export Plug-In . SVG Version: 6.00 Build 0)  -->
<!DOCTYPE svg PUBLIC "-//W3C//DTD SVG 1.1//EN" "http://www.w3.org/Graphics/SVG/1.1/DTD/svg11.dtd">
<svg version="1.1" id="Layer_1" xmlns="http://www.w3.org/2000/svg" xmlns:xlink="http://www.w3.org/1999/xlink" x="0px" y="0px"
	 width="339.887px" height="108.513px" viewBox="0 0 339.887 108.513" enable-background="new 0 0 339.887 108.513"
	 xml:space="preserve">
<g>
	<g>
		<path fill-rule="evenodd" clip-rule="evenodd" fill="#FFFFFF" d="M339.253,43.347l-9.719,12.313l9.585,12.144
			c0.3,0.343,0.536,0.75,0.662,1.22c0.44,1.644-0.534,3.332-2.178,3.772c-1.303,0.349-2.625-0.201-3.34-1.26l-8.631-10.935
			l-8.631,10.935c-0.715,1.059-2.036,1.609-3.34,1.26c-1.643-0.44-2.618-2.129-2.178-3.772c0.126-0.47,0.362-0.877,0.663-1.22
			l9.585-12.144l-9.719-12.313l0.01-0.008c-0.389-0.516-0.629-1.151-0.629-1.847c0-1.701,1.379-3.079,3.08-3.079
			c1.121,0,2.093,0.605,2.632,1.501l8.528,10.804l8.528-10.804c0.539-0.896,1.51-1.501,2.632-1.501c1.701,0,3.08,1.379,3.08,3.079
			c0,0.696-0.24,1.331-0.629,1.847L339.253,43.347z M306.124,69.795c0,1.702-1.379,3.081-3.08,3.081c-1.701,0-3.08-1.379-3.08-3.081
			c0-0.036,0.01-0.07,0.011-0.106V41.577c-0.001-0.036-0.011-0.07-0.011-0.106c0-1.701,1.379-3.08,3.08-3.08
			c1.701,0,3.08,1.379,3.08,3.08c0,0.084-0.018,0.164-0.025,0.247v27.831C306.106,69.631,306.124,69.71,306.124,69.795z
			 M303.044,32.302c-1.701,0-3.08-1.38-3.08-3.081c0-1.701,1.379-3.08,3.08-3.08c1.701,0,3.08,1.379,3.08,3.08
			C306.124,30.923,304.745,32.302,303.044,32.302z M278.157,72.861c-9.513,0-17.225-7.713-17.225-17.226
			c0-0.129,0.016-0.253,0.019-0.382h-0.019V23.968c-0.001-0.035-0.011-0.069-0.011-0.105c0-1.701,1.379-3.081,3.08-3.081
			c1.701,0,3.08,1.379,3.08,3.081c0,0.083-0.018,0.162-0.025,0.244v18.368c2.999-2.532,6.869-4.064,11.1-4.064
			c9.513,0,17.224,7.712,17.224,17.223C295.381,65.148,287.67,72.861,278.157,72.861z M278.157,44.509
			c-5.97,0-10.827,4.705-11.1,10.606v0.138h-0.007c-0.004,0.128-0.019,0.253-0.019,0.382c0,6.146,4.981,11.127,11.126,11.127
			c6.145,0,11.126-4.982,11.126-11.127C289.283,49.491,284.302,44.509,278.157,44.509z M254.049,59.096
			c-0.148,0-0.29-0.023-0.433-0.044h-24.321c1.397,4.324,5.371,7.473,10.112,7.674c0.033-0.001,0.063-0.01,0.096-0.01
			c1.701,0,3.08,1.379,3.08,3.079c0,1.702-1.379,3.081-3.08,3.081c-0.231,0-0.455-0.03-0.671-0.078
			c-9.021-0.545-16.178-8.004-16.178-17.163c0-9.512,7.712-17.223,17.225-17.223c9.513,0,17.224,7.712,17.224,17.223
			c0,0.011-0.002,0.023-0.002,0.034h-0.009c0.013,0.116,0.035,0.229,0.035,0.347C257.129,57.717,255.751,59.096,254.049,59.096z
			 M239.88,44.509c-5.209,0-9.57,3.585-10.781,8.418h21.562C249.45,48.095,245.089,44.509,239.88,44.509z M211.916,70.654l-0.001,0
			c-0.286,1.01-1.069,1.852-2.156,2.143c-1.3,0.348-2.619-0.198-3.335-1.252l-11.064-13.909l-11.064,13.908
			c-0.716,1.055-2.035,1.602-3.336,1.253c-1.088-0.291-1.871-1.133-2.156-2.143l-0.001,0l-7.468-28.052
			c-0.223-0.584-0.278-1.239-0.103-1.89c0.44-1.641,2.129-2.617,3.772-2.177c1.081,0.289,1.861,1.122,2.152,2.123l5.989,22.496
			l9.633-12.11c0.119-0.184,0.253-0.357,0.407-0.512l0.036-0.045l0.01,0.007c0.554-0.533,1.303-0.864,2.132-0.864
			c0.828,0,1.577,0.331,2.131,0.863l0.009-0.007l0.034,0.042c0.157,0.156,0.292,0.332,0.413,0.519l9.629,12.105l5.987-22.488
			c0.288-1.005,1.07-1.842,2.154-2.132c1.643-0.44,3.332,0.535,3.772,2.177c0.174,0.651,0.12,1.306-0.104,1.89L211.916,70.654z"/>
	</g>
	<g>
		<polygon fill="#FFFFFF" points="64.353,2.92 17.928,53.856 33.403,104.793 		"/>
		<polygon fill="#FFFFFF" points="16.914,50.516 31.477,34.537 2.351,2.579 		"/>
		<polygon fill="#FFFFFF" points="65.307,10.098 35.754,107.373 65.306,74.947 		"/>
		<polygon fill="#FFFFFF" points="133.613,69.922 133.613,0 101.715,34.998 		"/>
		<polygon fill="#FFFFFF" points="86.515,22.803 68.307,2.867 68.306,65.896 		"/>
		<polygon fill="#FFFFFF" points="0,0 0,0 0,0 		"/>
		<polygon fill="#FFFFFF" points="87.24,28.796 68.306,73.605 68.306,74.947 98.417,107.986 		"/>
		<polygon fill="#FFFFFF" points="0,5.16 0,73.301 31.052,107.373 		"/>
		<polygon fill="#FFFFFF" points="133.125,73.836 89.956,26.571 101.522,108.513 		"/>
	</g>
</g>
</svg>
