<svg viewBox="90 -20 104 90" width="160" height="51" xmlns="http://www.w3.org/2000/svg"><defs><linearGradient x1="12.932%" y1="9.052%" x2="71.216%" y2="81.625%" id="linearGradient-1"><stop stop-color="#67337A" offset="0%"/><stop stop-color="#723986" offset="100%"/></linearGradient><linearGradient x1="91.997%" y1="52.448%" x2="29.654%" y2="52.448%" id="linearGradient-2"><stop stop-color="#623274" stop-opacity="0" offset="0%"/><stop stop-color="#542C65" offset="100%"/></linearGradient><linearGradient x1="91.675%" y1="5.599%" x2="56.225%" y2="79.874%" id="linearGradient-3"><stop stop-color="#8A519F" offset="0%"/><stop stop-color="#8A53A0" offset="100%"/></linearGradient><linearGradient x1="63.479%" y1="48.225%" x2="0%" y2="48.225%" id="linearGradient-4"><stop stop-color="#8A529F" stop-opacity=".1" offset="0%"/><stop stop-color="#542C65" offset="100%"/></linearGradient><linearGradient x1="24.699%" y1="31.401%" x2="80.097%" y2="66.964%" id="linearGradient-5"><stop stop-color="#5C2E6D" offset="0%"/><stop stop-color="#6D377B" offset="100%"/></linearGradient><linearGradient x1="12.346%" y1="34.458%" x2="81.65%" y2="53.652%" id="linearGradient-6"><stop stop-color="#612E74" offset="0%"/><stop stop-color="#7F4395" offset="100%"/></linearGradient><linearGradient x1="100%" y1="0%" y2="69.36%" id="linearGradient-7"><stop stop-color="#582C6A" offset="0%"/><stop stop-color="#743983" offset="100%"/></linearGradient><linearGradient x1="50%" y1="74.788%" x2="19.624%" y2="71.707%" id="linearGradient-8"><stop stop-color="#623274" stop-opacity="0" offset="0%"/><stop stop-color="#542C65" offset="100%"/></linearGradient><linearGradient x1="0%" y1="0%" x2="0%" y2="100%" id="linearGradient-9"><stop stop-color="#723A85" offset="0%"/><stop stop-color="#8C519C" offset="100%"/></linearGradient><linearGradient x1="0%" y1="35.927%" x2="62.291%" y2="46.718%" id="linearGradient-10"><stop stop-color="#66397A" offset="0%"/><stop stop-color="#9F69AB" offset="100%"/></linearGradient><linearGradient x1="72%" y1="48.225%" x2="0%" y2="48.225%" id="linearGradient-11"><stop stop-color="#623274" stop-opacity="0" offset="0%"/><stop stop-color="#542C65" offset="100%"/></linearGradient><linearGradient x1="50%" y1="21.039%" x2="50%" y2="78.192%" id="linearGradient-12"><stop stop-color="#5D306E" offset="0%"/><stop stop-color="#9F6AAA" offset="100%"/></linearGradient></defs><g id="webix-logo-160" fill="none" fill-rule="evenodd"><path id="Bg" fill="#5B2E6E" d="M0 33.861905L0 0.230880231 15.4356327 17.1069073 30.9379509 0.230880231 46.2336474 17.019439 61.6450216 0.230880231 61.6450216 33.9393939 46.4069264 51.024531 30.9379509 34.1702742 15.4689755 51.024531z"/><path d="M7.73496491,25.6277056 C9.33730989,23.8734933 14.4939532,18.2290103 15.4689755,17.1615048 C13.5097055,15.0176085 3.19673709,3.73010234 0,0.230880231 C0.195004462,0.871573932 6.95081157,23.0531895 7.73496491,25.6277056 Z" id="Triangle-10" fill="url(#linearGradient-1)"/><path id="Shadow-4" fill="url(#linearGradient-2)" transform="translate(4.716805, 13.453377) rotate(-17.000000) translate(-4.716805, -13.453377)" d="M4.07198595 -0.570419989L7.6930819 6.95843806 7.83368857 27.4771745 1.59992234 27.4771745z"/><path id="Triangle-9" fill="url(#linearGradient-2)" transform="translate(10.851371, 21.240981) rotate(-125.000000) translate(-10.851371, -21.240981)" d="M7.15728716 14.7763348L14.5454545 17.2042574 13.8659675 27.051333 8.95146491 27.7056277z"/><path id="Triangle-8" fill="url(#linearGradient-3)" d="M46.1760462 17.0843L61.6450216 33.9393939 61.6450216 0.230880231z"/><path id="Shadow-3" fill="url(#linearGradient-4)" transform="translate(55.522571, 23.763536) rotate(-46.000000) translate(-55.522571, -23.763536)" d="M53.8320166 12.4089014L58.589459 12.2906691 57.272042 30.5852997 52.4556832 35.2364033z"/><path id="Triangle-7" fill="url(#linearGradient-5)" d="M46.4069264 51.024531L61.6450216 33.9393939 40.6349206 10.8513709z"/><path id="Triangle-6" fill="url(#linearGradient-6)" d="M30.9379509 34.1702742L46.4069264 51.024531 40.6349206 10.8513709z"/><path id="Triangle-5" fill="url(#linearGradient-7)" d="M15.4689755 51.024531L30.9379509 34.1702742 30.9379509 0.230880231z"/><path id="Shadow-2" fill="url(#linearGradient-8)" d="M15.4689755 51.024531L21.5180835 44.4337118 30.9379509 10.1457953 30.9379509 0.230880231z"/><path id="Triangle-4" fill="url(#linearGradient-9)" d="M30.9379509 34.1702742L40.6349206 10.8513709 30.9379509 0.230880231z"/><path d="M7.61904762,25.5949211 C8.14859209,27.3297551 15.4700339,51.024531 15.4700339,51.024531 L30.9379509,0.230880231 L7.61904762,25.5949211 Z" id="Triangle-2" fill="url(#linearGradient-10)"/><path id="Shadow-1" fill="url(#linearGradient-11)" transform="translate(13.554391, 35.799068) rotate(-17.000000) translate(-13.554391, -35.799068)" d="M10.0683737 24.7595424L17.040409 20.6794303 16.9808194 47.3675109 10.9339192 50.9187048z"/><path id="Triangle-1" fill="url(#linearGradient-12)" d="M0 34.0500979L15.4689755 51.024531 0.000634624635 0.230880231z"/><path d="M159.53824,31.8614719 L154.920635,26.3203463 L159.53824,20.7792208 L159.53824,20.7792208 C159.628484,20.4857664 159.742658,20.1946606 159.76912,19.8556999 C159.742658,19.0974156 159.10328,18.4704185 158.383838,18.4704185 C157.893029,18.4704185 157.504835,18.6719533 157.229437,18.9321789 L157.229437,18.9321789 L153.304473,24.011544 L149.148629,18.9321789 L149.148629,18.9321789 C148.873231,18.6719533 148.485037,18.4704185 147.994228,18.4704185 C147.274786,18.4704185 146.635408,19.0974156 146.608947,19.8556999 C146.635408,20.1946606 146.749583,20.4633737 146.839827,20.7792208 L146.839827,20.7792208 L151.457431,26.3203463 L146.839827,31.8614719 C146.795253,32.0404279 146.703913,32.1971772 146.608947,32.3232323 C146.452729,33.1376729 146.909427,33.9214193 147.763348,34.1702742 C148.256688,34.2797034 148.827561,34.0333831 149.148629,33.4776335 L153.304473,28.6291486 L157.229437,33.4776335 C157.550505,34.0333831 158.144213,34.2797034 158.614719,34.1702742 C159.468639,33.9214193 159.925338,33.1600656 159.76912,32.3232323 C159.674154,32.1971772 159.582814,32.0180352 159.53824,31.8614719 Z M144.300144,19.8556999 C144.300144,19.0984127 143.674533,18.4704185 142.914863,18.4704185 C142.155192,18.4704185 141.551925,19.0759843 141.529582,19.8556999 L141.529582,19.8556999 L141.529582,19.8556999 C141.529582,19.8385488 141.529582,19.8609771 141.529582,19.8556999 C141.529582,19.8609771 141.529582,19.8834055 141.529582,19.8556999 L141.529582,32.7849928 C141.529582,32.7348588 141.529582,32.7572872 141.529582,32.7849928 C141.529582,33.5422799 142.155192,34.1702742 142.914863,34.1702742 C143.674533,34.1702742 144.300144,33.5422799 144.300144,32.7849928 C144.300144,32.7348588 144.300144,32.7124304 144.300144,32.7849928 L144.300144,19.8556999 C144.277801,19.9058338 144.300144,19.9058338 144.300144,19.8556999 Z M121.673882,26.3203463 L121.673882,26.3203463 C121.673882,21.9692435 118.154948,18.4704185 113.823954,18.4704185 C109.492959,18.4704185 105.974026,21.9916718 105.974026,26.3203463 C105.974026,30.4920223 109.244829,33.8787054 113.362193,34.1702742 C113.463038,34.1254174 113.553267,34.1702742 113.593074,34.1702742 C114.410443,34.1702742 115.042046,33.5422799 114.978355,32.7849928 C115.042046,32.0171511 114.455557,31.4115852 113.823954,31.3997114 L113.823954,31.3997114 C113.711168,31.3667285 113.68861,31.3667285 113.593074,31.3997114 C113.666053,31.3667285 113.666053,31.3667285 113.593074,31.3997114 C113.643496,31.3667285 113.643496,31.3667285 113.593074,31.3997114 C111.455441,31.277015 109.65086,29.8415997 108.975469,27.9365079 L120.05772,27.9365079 C120.20766,27.8679035 120.230217,27.8903319 120.2886,27.9365079 C121.019721,27.8903319 121.651324,27.2623377 121.673882,26.5512266 C121.673882,26.4324881 121.651324,26.3652031 121.673882,26.3203463 L121.673882,26.3203463 Z M108.975469,25.1659452 C109.54735,22.9165506 111.537495,21.2409812 114.054834,21.2409812 C116.341293,21.2409812 118.354313,22.9165506 118.903319,25.1659452 L108.975469,25.1659452 Z M104.588745,19.3939394 C104.339423,18.7654345 103.568794,18.3170414 102.741703,18.4704185 C102.344854,18.6533362 102.027536,19.0120507 101.818182,19.3939394 L101.818182,19.3939394 L99.047619,29.7835498 L94.4300144,24.011544 L94.4300144,24.011544 L94.4300144,24.011544 L94.4300144,24.011544 C94.2305833,23.720178 93.8905999,23.5632404 93.5064935,23.5497835 C93.1199708,23.5632404 92.7799874,23.720178 92.5829726,24.011544 L92.5829726,24.011544 L87.965368,29.7835498 L85.1948052,19.3939394 L85.1948052,19.3939394 C85.0057,19.0120507 84.6657166,18.6533362 84.2712843,18.4704185 C83.4417763,18.3170414 82.6711472,18.7654345 82.4242424,19.3939394 C82.3991605,19.7294796 82.4218261,19.9312565 82.4242424,20.0865801 L82.4242424,20.0865801 L85.8874459,33.2467532 L85.8874459,33.2467532 C86.0936469,33.5848256 86.4336303,33.9883793 87.041847,34.1702742 C87.5215773,34.2798348 88.0882163,34.0332187 88.4271284,33.4776335 L93.5064935,27.2438672 L98.5858586,33.4776335 C98.9676855,34.0332187 99.5569901,34.2798348 100.20202,34.1702742 C100.622271,33.9883793 100.962255,33.6072452 101.125541,33.2467532 L101.125541,33.2467532 L104.588745,20.0865801 L104.588745,20.0865801 C104.588745,19.9536761 104.61141,19.7294796 104.588745,19.3939394 Z M131.370851,18.4704185 C129.408369,18.4138986 127.67146,19.1556396 126.291486,20.3174603 L126.291486,11.7748918 C126.295467,11.8056613 126.318024,11.7831843 126.291486,11.7748918 C126.318024,11.0189663 125.686421,10.3896104 124.906205,10.3896104 C124.152527,10.3896104 123.543481,10.9964893 123.520924,11.7748918 L123.520924,11.7748918 L123.520924,11.7748918 C123.520924,11.7831843 123.520924,11.8056613 123.520924,11.7748918 C123.520924,11.8056613 123.520924,11.8281383 123.520924,11.7748918 L123.520924,26.0894661 L123.520924,26.0894661 C123.543481,26.1909399 123.520924,26.2358939 123.520924,26.3203463 C123.520924,30.6413855 127.039857,34.1702742 131.370851,34.1702742 C135.701846,34.1702742 139.220779,30.6413855 139.220779,26.3203463 C139.198222,21.9203103 135.679289,18.4138986 131.370851,18.4704185 Z M131.370851,31.3997114 C128.571557,31.3997114 126.291486,29.1297297 126.291486,26.3203463 C126.291486,23.510963 128.571557,21.2409812 131.370851,21.2409812 C134.170146,21.2409812 136.450216,23.510963 136.450216,26.3203463 C136.450216,29.1297297 134.170146,31.3997114 131.370851,31.3997114 Z M142.914863,12.9292929 C142.155192,12.9292929 141.529582,13.549899 141.529582,14.3145743 C141.529582,15.0792496 142.155192,15.6998557 142.914863,15.6998557 C143.674533,15.6998557 144.300144,15.0792496 144.300144,14.3145743 C144.300144,13.549899 143.674533,12.9292929 142.914863,12.9292929 Z" id="Text" fill="#3C3D3C"/></g></svg>